<svg width="128px" height="128px" viewBox="0 0 128 128" version="1.1" xmlns="http://www.w3.org/2000/svg" xmlns:xlink="http://www.w3.org/1999/xlink">
    <g id="Artboard" stroke="none" stroke-width="1" fill="none" fill-rule="evenodd">
        <g id="coding" transform="translate(22.000000, 45.000000)" fill="#d7dce1" fill-rule="nonzero">
            <path d="M84.3654523,10.2713037 L70.0183408,3.33334612 C69.1365509,2.90647147 67.664639,2.88700271 66.7294109,3.28981796 C65.7956369,3.69230136 65.7522563,4.36447132 66.6347733,4.79101412 L79.4750746,10.9997782 L66.6347733,17.2092614 C65.7522563,17.6358042 65.7956369,18.3076423 66.7294109,18.7104575 C67.1792123,18.9040942 67.7538238,19 68.3262541,19 C68.9443674,19 69.5616325,18.8881653 70.018462,18.6675931 L84.3655735,11.7293036 C85.2114957,11.319796 85.2114957,10.6804795 84.3654523,10.2713037 Z" id="greater"></path>
            <path d="M18.3653064,17.2088897 L5.52629532,10.9997922 L18.3653064,4.79075007 C19.247066,4.36421096 19.2044139,3.69199153 18.2699451,3.28956692 C17.3362032,2.88708701 15.8627668,2.9065556 14.9811284,3.33309471 L0.634510671,10.2709922 C-0.211503557,10.6801645 -0.211503557,11.3198072 0.634510671,11.7290347 L14.9818554,18.6672641 C15.4393962,18.8884981 16.055913,19 16.674005,19 C17.2462945,19 17.8210074,18.9037079 18.2699451,18.7100729 C19.2052621,18.307593 19.247066,17.6354288 18.3653064,17.2088897 Z" id="less"></path>
            <path d="M63.1066124,0.012396064 C61.8900288,-0.0772776453 60.7514775,0.329164063 60.5656864,0.921168759 L54.0258383,21.7512357 C53.8400472,22.3435794 54.6761073,22.8972736 55.8933876,22.9876819 C56.0078814,22.9959881 56.1207495,23 56.233037,23 C57.315851,23 58.2655921,22.6155953 58.4343136,22.0789092 L64.9741617,1.24884226 C65.1599528,0.656442024 64.3238927,0.102804341 63.1066124,0.012396064 Z" id="bar"></path>
        </g>
        <g id="heart" transform="translate(47.000000, 45.000000)" fill="#e7508c" fill-rule="nonzero">
            <path d="M26.4924449,2.24845806 C25.0028843,0.798545423 22.958992,0 20.7368353,0 C19.0758161,0 17.5546421,0.471285636 16.2154645,1.40065617 C15.5397287,1.86977451 14.9274391,2.44371061 14.3875969,3.11359822 C13.8479742,2.44390762 13.2354651,1.86977451 12.5595097,1.40065617 C11.2205517,0.471285636 9.69937771,0 8.03835848,0 C5.81620184,0 3.77209002,0.798545423 2.28252936,2.24845806 C0.810751258,3.68142645 5.68434189e-14,5.63907448 5.68434189e-14,7.76104202 C5.68434189e-14,9.94507264 0.906908626,11.9442931 2.85398498,14.0528629 C4.595794,15.9389905 7.09917786,17.853687 9.99816803,20.0708179 C10.9880617,20.8279879 12.1101169,21.6862322 13.2752014,22.6004317 C13.5829927,22.8423794 13.9779403,22.9755688 14.3875969,22.9755688 C14.797034,22.9755688 15.1922011,22.8423794 15.4995533,22.6008258 C16.6646378,21.6864292 17.7873517,20.8277909 18.7776844,20.0702268 C21.6762355,17.8534899 24.1796194,15.9389905 25.9214283,14.0526658 C27.8685048,11.9442931 28.7751938,9.94507264 28.7751938,7.76084501 C28.7751938,5.63907448 27.9644425,3.68142645 26.4924449,2.24845806 Z"></path>
        </g>
        <g id="laptop" transform="translate(0.000000, 22.000000)" fill="#d7dce1" fill-rule="nonzero">
            <path d="M127.04,72.1776327 C126.918531,72.0365714 126.739592,71.9529796 126.55151,71.9529796 L0.64522449,71.9529796 C0.457142857,71.9529796 0.279510204,72.0352653 0.156734694,72.1776327 C0.0339591837,72.3186939 -0.0208979592,72.5080816 0.00653061224,72.6948571 C0.0248163265,72.8124082 1.92391837,84.4708571 16.6635102,84.4708571 L110.533224,84.4708571 C125.27151,84.4708571 127.170612,72.8124082 127.190204,72.6948571 C127.216327,72.5080816 127.161469,72.3186939 127.04,72.1776327 Z M73.067102,80.3879184 L54.1283265,80.3879184 L54.1283265,76.0333061 L73.067102,76.0333061 L73.067102,80.3879184 Z" id="keyboard"></path>
            <path d="M13.7234286,67.4207347 L113.472,67.4207347 C114.913959,67.4207347 116.084245,66.250449 116.084245,64.8084898 L116.084245,3.5435102 C116.084245,2.10155102 114.913959,0.931265306 113.472,0.931265306 L13.7234286,0.931265306 C12.2814694,0.931265306 11.1111837,2.10155102 11.1111837,3.5435102 L11.1111837,64.8084898 C11.1111837,66.250449 12.2814694,67.4207347 13.7234286,67.4207347 Z M20.2540408,10.0741224 L106.941388,10.0741224 L106.941388,58.2778776 L20.2540408,58.2778776 L20.2540408,10.0741224 Z" id="monitor"></path>
        </g>
    </g>
</svg>